<mxfile host="app.diagrams.net" modified="2021-03-21T08:41:34.986Z" agent="5.0 (Macintosh; Intel Mac OS X 10_15_5) AppleWebKit/537.36 (KHTML, like Gecko) Chrome/81.0.4044.138 Safari/537.36" etag="zyB5CEMv0qzs3hK6bSFw" version="14.4.4" type="github">
  <diagram id="fzYdJxx9XS5O2OnHd9Sr" name="第 1 页">
    <mxGraphModel dx="1298" dy="772" grid="0" gridSize="10" guides="1" tooltips="1" connect="1" arrows="1" fold="1" page="0" pageScale="1" pageWidth="827" pageHeight="1169" background="none" math="0" shadow="0">
      <root>
        <mxCell id="0" />
        <mxCell id="1" parent="0" />
        <mxCell id="sth7DNuGs8PsifQStnxZ-1" value="" style="rounded=0;whiteSpace=wrap;html=1;strokeWidth=1;opacity=10;fillColor=none;" parent="1" vertex="1">
          <mxGeometry x="85" y="591" width="722" height="74" as="geometry" />
        </mxCell>
        <mxCell id="sth7DNuGs8PsifQStnxZ-3" value="MySQL" style="rounded=0;whiteSpace=wrap;html=1;strokeWidth=1;gradientColor=none;fillColor=none;strokeColor=#BABABA;" parent="1" vertex="1">
          <mxGeometry x="123" y="606.25" width="82" height="43.5" as="geometry" />
        </mxCell>
        <mxCell id="sth7DNuGs8PsifQStnxZ-7" value="Tair" style="rounded=0;whiteSpace=wrap;html=1;strokeWidth=1;gradientColor=none;fillColor=none;strokeColor=#BABABA;" parent="1" vertex="1">
          <mxGeometry x="239" y="606.25" width="82" height="43.5" as="geometry" />
        </mxCell>
        <mxCell id="sth7DNuGs8PsifQStnxZ-8" value="Diamond" style="rounded=0;whiteSpace=wrap;html=1;strokeWidth=1;gradientColor=none;fillColor=none;strokeColor=#BABABA;" parent="1" vertex="1">
          <mxGeometry x="353" y="606.25" width="82" height="43.5" as="geometry" />
        </mxCell>
        <mxCell id="sth7DNuGs8PsifQStnxZ-9" value="ScheduleX" style="rounded=0;whiteSpace=wrap;html=1;strokeWidth=1;gradientColor=none;fillColor=none;strokeColor=#BABABA;" parent="1" vertex="1">
          <mxGeometry x="466" y="606.25" width="82" height="43.5" as="geometry" />
        </mxCell>
        <mxCell id="sth7DNuGs8PsifQStnxZ-10" value="Hbase" style="rounded=0;whiteSpace=wrap;html=1;strokeWidth=1;gradientColor=none;fillColor=none;strokeColor=#BABABA;" parent="1" vertex="1">
          <mxGeometry x="580" y="606.25" width="82" height="43.5" as="geometry" />
        </mxCell>
        <mxCell id="sth7DNuGs8PsifQStnxZ-11" value="ODPS" style="rounded=0;whiteSpace=wrap;html=1;strokeWidth=1;gradientColor=none;fillColor=none;strokeColor=#BABABA;" parent="1" vertex="1">
          <mxGeometry x="694" y="606.25" width="82" height="43.5" as="geometry" />
        </mxCell>
        <mxCell id="sth7DNuGs8PsifQStnxZ-12" value="基础&lt;br&gt;中间件" style="rounded=0;whiteSpace=wrap;html=1;strokeColor=#666666;strokeWidth=1;opacity=10;fontColor=#333333;fillColor=#BABABA;" parent="1" vertex="1">
          <mxGeometry x="21" y="591" width="64" height="74" as="geometry" />
        </mxCell>
        <mxCell id="sth7DNuGs8PsifQStnxZ-22" value="服务商工作台" style="rounded=0;whiteSpace=wrap;html=1;strokeWidth=1;" parent="1" vertex="1">
          <mxGeometry x="100" y="1342" width="149" height="46" as="geometry" />
        </mxCell>
        <mxCell id="sth7DNuGs8PsifQStnxZ-23" value="小二工作台" style="rounded=0;whiteSpace=wrap;html=1;strokeWidth=1;" parent="1" vertex="1">
          <mxGeometry x="290" y="1342" width="149" height="46" as="geometry" />
        </mxCell>
        <mxCell id="sth7DNuGs8PsifQStnxZ-24" value="商家工作台" style="rounded=0;whiteSpace=wrap;html=1;strokeWidth=1;" parent="1" vertex="1">
          <mxGeometry x="487" y="1342" width="149" height="46" as="geometry" />
        </mxCell>
        <mxCell id="sth7DNuGs8PsifQStnxZ-25" value="" style="rounded=0;whiteSpace=wrap;html=1;strokeWidth=1;" parent="1" vertex="1">
          <mxGeometry x="102" y="1418" width="535" height="284" as="geometry" />
        </mxCell>
        <mxCell id="BvIXddIH53Y5yg7DUaGY-2" value="商家" style="rounded=1;whiteSpace=wrap;html=1;fillColor=#d5e8d4;strokeColor=#82b366;" vertex="1" parent="1">
          <mxGeometry x="58.25" y="1968" width="75" height="36" as="geometry" />
        </mxCell>
        <mxCell id="BvIXddIH53Y5yg7DUaGY-3" value="平台" style="rounded=1;whiteSpace=wrap;html=1;fillColor=#f5f5f5;strokeColor=#666666;fontColor=#333333;" vertex="1" parent="1">
          <mxGeometry x="336.75" y="1966" width="75" height="36" as="geometry" />
        </mxCell>
        <mxCell id="BvIXddIH53Y5yg7DUaGY-4" value="服务商" style="rounded=1;whiteSpace=wrap;html=1;fillColor=#ffe6cc;strokeColor=#d79b00;" vertex="1" parent="1">
          <mxGeometry x="636.25" y="1966" width="75" height="36" as="geometry" />
        </mxCell>
        <mxCell id="BvIXddIH53Y5yg7DUaGY-6" value="填写咨询单详情" style="rounded=1;whiteSpace=wrap;html=1;fillColor=#d5e8d4;strokeColor=#82b366;" vertex="1" parent="1">
          <mxGeometry x="32.25" y="2040" width="137" height="40" as="geometry" />
        </mxCell>
        <mxCell id="BvIXddIH53Y5yg7DUaGY-9" value="所在行业" style="rounded=1;whiteSpace=wrap;html=1;" vertex="1" parent="1">
          <mxGeometry x="105.75" y="2086" width="63.5" height="24" as="geometry" />
        </mxCell>
        <mxCell id="BvIXddIH53Y5yg7DUaGY-10" value="公司名" style="rounded=1;whiteSpace=wrap;html=1;" vertex="1" parent="1">
          <mxGeometry x="32.75" y="2086" width="63.5" height="24" as="geometry" />
        </mxCell>
        <mxCell id="BvIXddIH53Y5yg7DUaGY-11" value="咨询服务" style="rounded=1;whiteSpace=wrap;html=1;" vertex="1" parent="1">
          <mxGeometry x="32.75" y="2116" width="63.5" height="24" as="geometry" />
        </mxCell>
        <mxCell id="BvIXddIH53Y5yg7DUaGY-12" value="核心诉求" style="rounded=1;whiteSpace=wrap;html=1;" vertex="1" parent="1">
          <mxGeometry x="105.75" y="2116" width="63.5" height="24" as="geometry" />
        </mxCell>
        <mxCell id="BvIXddIH53Y5yg7DUaGY-13" value="报价" style="rounded=1;whiteSpace=wrap;html=1;" vertex="1" parent="1">
          <mxGeometry x="32.75" y="2146" width="63.5" height="24" as="geometry" />
        </mxCell>
        <mxCell id="BvIXddIH53Y5yg7DUaGY-14" value="联系方式" style="rounded=1;whiteSpace=wrap;html=1;" vertex="1" parent="1">
          <mxGeometry x="105.75" y="2146" width="63.5" height="24" as="geometry" />
        </mxCell>
        <mxCell id="BvIXddIH53Y5yg7DUaGY-15" value="" style="rounded=1;whiteSpace=wrap;html=1;fillColor=#f5f5f5;strokeColor=#666666;fontColor=#333333;" vertex="1" parent="1">
          <mxGeometry x="295.25" y="2038" width="158" height="129" as="geometry" />
        </mxCell>
        <mxCell id="BvIXddIH53Y5yg7DUaGY-17" value="匹配适合的服务商" style="text;html=1;strokeColor=none;fillColor=none;align=center;verticalAlign=middle;whiteSpace=wrap;rounded=0;" vertex="1" parent="1">
          <mxGeometry x="323.25" y="2050" width="102" height="15" as="geometry" />
        </mxCell>
        <mxCell id="BvIXddIH53Y5yg7DUaGY-18" value="服务项目" style="rounded=1;whiteSpace=wrap;html=1;" vertex="1" parent="1">
          <mxGeometry x="306.25" y="2084" width="63.5" height="24" as="geometry" />
        </mxCell>
        <mxCell id="BvIXddIH53Y5yg7DUaGY-20" value="星级" style="rounded=1;whiteSpace=wrap;html=1;" vertex="1" parent="1">
          <mxGeometry x="382.25" y="2084" width="63.5" height="24" as="geometry" />
        </mxCell>
        <mxCell id="BvIXddIH53Y5yg7DUaGY-21" value="承接量" style="rounded=1;whiteSpace=wrap;html=1;" vertex="1" parent="1">
          <mxGeometry x="308.25" y="2127" width="63.5" height="24" as="geometry" />
        </mxCell>
        <mxCell id="BvIXddIH53Y5yg7DUaGY-23" value="行业" style="rounded=1;whiteSpace=wrap;html=1;" vertex="1" parent="1">
          <mxGeometry x="382.25" y="2127" width="63.5" height="24" as="geometry" />
        </mxCell>
        <mxCell id="BvIXddIH53Y5yg7DUaGY-24" value="" style="endArrow=blockThin;html=1;endFill=1;rounded=1;strokeColor=#999999;" edge="1" parent="1">
          <mxGeometry width="50" height="50" relative="1" as="geometry">
            <mxPoint x="201.25" y="2108" as="sourcePoint" />
            <mxPoint x="265.25" y="2108" as="targetPoint" />
          </mxGeometry>
        </mxCell>
        <mxCell id="BvIXddIH53Y5yg7DUaGY-28" value="收到咨询单" style="rounded=1;whiteSpace=wrap;html=1;fillColor=#ffe6cc;strokeColor=#d79b00;" vertex="1" parent="1">
          <mxGeometry x="607.25" y="2082.5" width="137" height="40" as="geometry" />
        </mxCell>
        <mxCell id="BvIXddIH53Y5yg7DUaGY-29" value="" style="endArrow=blockThin;html=1;endFill=1;rounded=1;strokeColor=#999999;" edge="1" parent="1">
          <mxGeometry width="50" height="50" relative="1" as="geometry">
            <mxPoint x="496.25" y="2105" as="sourcePoint" />
            <mxPoint x="560.25" y="2105" as="targetPoint" />
          </mxGeometry>
        </mxCell>
        <mxCell id="BvIXddIH53Y5yg7DUaGY-30" value="钉钉工作通知" style="text;html=1;strokeColor=none;fillColor=none;align=center;verticalAlign=middle;whiteSpace=wrap;rounded=0;" vertex="1" parent="1">
          <mxGeometry x="489.25" y="2080" width="91" height="20" as="geometry" />
        </mxCell>
        <mxCell id="BvIXddIH53Y5yg7DUaGY-31" value="工作台透出" style="text;html=1;strokeColor=none;fillColor=none;align=center;verticalAlign=middle;whiteSpace=wrap;rounded=0;" vertex="1" parent="1">
          <mxGeometry x="491.25" y="2114" width="91" height="20" as="geometry" />
        </mxCell>
        <mxCell id="BvIXddIH53Y5yg7DUaGY-33" style="edgeStyle=orthogonalEdgeStyle;rounded=1;orthogonalLoop=1;jettySize=auto;html=1;exitX=0.5;exitY=1;exitDx=0;exitDy=0;endArrow=blockThin;endFill=1;strokeColor=#999999;" edge="1" parent="1" source="BvIXddIH53Y5yg7DUaGY-30" target="BvIXddIH53Y5yg7DUaGY-30">
          <mxGeometry relative="1" as="geometry" />
        </mxCell>
        <mxCell id="BvIXddIH53Y5yg7DUaGY-34" value="" style="endArrow=blockThin;html=1;endFill=1;rounded=1;strokeColor=#999999;" edge="1" parent="1">
          <mxGeometry width="50" height="50" relative="1" as="geometry">
            <mxPoint x="670.25" y="2123.5" as="sourcePoint" />
            <mxPoint x="670.25" y="2213" as="targetPoint" />
          </mxGeometry>
        </mxCell>
        <mxCell id="BvIXddIH53Y5yg7DUaGY-46" style="edgeStyle=orthogonalEdgeStyle;rounded=1;orthogonalLoop=1;jettySize=auto;html=1;endArrow=blockThin;endFill=1;strokeColor=#999999;dashed=1;" edge="1" parent="1" source="BvIXddIH53Y5yg7DUaGY-35">
          <mxGeometry relative="1" as="geometry">
            <mxPoint x="180.25" y="2238" as="targetPoint" />
          </mxGeometry>
        </mxCell>
        <mxCell id="BvIXddIH53Y5yg7DUaGY-47" value="转发给其他服务商" style="edgeStyle=orthogonalEdgeStyle;rounded=1;orthogonalLoop=1;jettySize=auto;html=1;entryX=1;entryY=0.5;entryDx=0;entryDy=0;endArrow=blockThin;endFill=1;strokeColor=#999999;" edge="1" parent="1" source="BvIXddIH53Y5yg7DUaGY-35" target="BvIXddIH53Y5yg7DUaGY-28">
          <mxGeometry relative="1" as="geometry">
            <Array as="points">
              <mxPoint x="767.25" y="2238" />
              <mxPoint x="767.25" y="2103" />
            </Array>
          </mxGeometry>
        </mxCell>
        <mxCell id="BvIXddIH53Y5yg7DUaGY-35" value="是否承接" style="strokeWidth=1;html=1;shape=mxgraph.flowchart.decision;whiteSpace=wrap;" vertex="1" parent="1">
          <mxGeometry x="597.25" y="2213" width="150" height="49" as="geometry" />
        </mxCell>
        <mxCell id="BvIXddIH53Y5yg7DUaGY-37" value="" style="endArrow=blockThin;html=1;endFill=1;rounded=1;strokeColor=#999999;entryX=1.012;entryY=0.607;entryDx=0;entryDy=0;entryPerimeter=0;" edge="1" parent="1" target="BvIXddIH53Y5yg7DUaGY-39">
          <mxGeometry width="50" height="50" relative="1" as="geometry">
            <mxPoint x="671.75" y="2262" as="sourcePoint" />
            <mxPoint x="672.25" y="2338" as="targetPoint" />
            <Array as="points">
              <mxPoint x="672.25" y="2342" />
            </Array>
          </mxGeometry>
        </mxCell>
        <mxCell id="BvIXddIH53Y5yg7DUaGY-38" value="拒绝" style="edgeLabel;html=1;align=center;verticalAlign=middle;resizable=0;points=[];" vertex="1" connectable="0" parent="BvIXddIH53Y5yg7DUaGY-37">
          <mxGeometry x="-0.1061" relative="1" as="geometry">
            <mxPoint x="47.5" y="-42" as="offset" />
          </mxGeometry>
        </mxCell>
        <mxCell id="BvIXddIH53Y5yg7DUaGY-43" value="退回平台" style="edgeLabel;html=1;align=center;verticalAlign=middle;resizable=0;points=[];" vertex="1" connectable="0" parent="BvIXddIH53Y5yg7DUaGY-37">
          <mxGeometry x="0.3288" y="-1" relative="1" as="geometry">
            <mxPoint as="offset" />
          </mxGeometry>
        </mxCell>
        <mxCell id="BvIXddIH53Y5yg7DUaGY-39" value="" style="rounded=1;whiteSpace=wrap;html=1;fillColor=#f5f5f5;strokeColor=#666666;fontColor=#333333;" vertex="1" parent="1">
          <mxGeometry x="297.25" y="2291" width="170" height="84" as="geometry" />
        </mxCell>
        <mxCell id="BvIXddIH53Y5yg7DUaGY-40" value="多轮派单" style="text;html=1;strokeColor=none;fillColor=none;align=center;verticalAlign=middle;whiteSpace=wrap;rounded=0;" vertex="1" parent="1">
          <mxGeometry x="323.25" y="2305" width="102" height="15" as="geometry" />
        </mxCell>
        <mxCell id="BvIXddIH53Y5yg7DUaGY-41" value="终止" style="rounded=1;whiteSpace=wrap;html=1;" vertex="1" parent="1">
          <mxGeometry x="310.25" y="2336" width="63.5" height="24" as="geometry" />
        </mxCell>
        <mxCell id="BvIXddIH53Y5yg7DUaGY-42" value="转发" style="rounded=1;whiteSpace=wrap;html=1;" vertex="1" parent="1">
          <mxGeometry x="389.75" y="2336" width="63.5" height="24" as="geometry" />
        </mxCell>
        <mxCell id="BvIXddIH53Y5yg7DUaGY-44" value="小二转发给其他服务商" style="endArrow=blockThin;html=1;endFill=1;rounded=1;strokeColor=#999999;entryX=0.5;entryY=1;entryDx=0;entryDy=0;dashed=1;" edge="1" parent="1" target="BvIXddIH53Y5yg7DUaGY-31">
          <mxGeometry x="-0.1133" width="50" height="50" relative="1" as="geometry">
            <mxPoint x="415.25" y="2360" as="sourcePoint" />
            <mxPoint x="571.25" y="2210" as="targetPoint" />
            <Array as="points">
              <mxPoint x="415.25" y="2442" />
              <mxPoint x="537.25" y="2442" />
            </Array>
            <mxPoint as="offset" />
          </mxGeometry>
        </mxCell>
        <mxCell id="BvIXddIH53Y5yg7DUaGY-45" value="电话沟通" style="rounded=1;whiteSpace=wrap;html=1;fillColor=#d5e8d4;strokeColor=#82b366;" vertex="1" parent="1">
          <mxGeometry x="32.75" y="2222" width="137" height="40" as="geometry" />
        </mxCell>
        <mxCell id="BvIXddIH53Y5yg7DUaGY-48" value="" style="endArrow=blockThin;html=1;endFill=1;rounded=1;strokeColor=#999999;" edge="1" parent="1">
          <mxGeometry width="50" height="50" relative="1" as="geometry">
            <mxPoint x="95.25" y="2273" as="sourcePoint" />
            <mxPoint x="95.25" y="2362.5" as="targetPoint" />
          </mxGeometry>
        </mxCell>
        <mxCell id="BvIXddIH53Y5yg7DUaGY-49" value="是否合作" style="strokeWidth=1;html=1;shape=mxgraph.flowchart.decision;whiteSpace=wrap;" vertex="1" parent="1">
          <mxGeometry x="20.75" y="2367" width="150" height="49" as="geometry" />
        </mxCell>
        <mxCell id="BvIXddIH53Y5yg7DUaGY-51" value="" style="endArrow=blockThin;html=1;endFill=1;rounded=1;strokeColor=#999999;entryX=0;entryY=0.5;entryDx=0;entryDy=0;" edge="1" parent="1" target="BvIXddIH53Y5yg7DUaGY-52">
          <mxGeometry width="50" height="50" relative="1" as="geometry">
            <mxPoint x="96.25" y="2416" as="sourcePoint" />
            <mxPoint x="96.25" y="2505.5" as="targetPoint" />
            <Array as="points">
              <mxPoint x="96.25" y="2572" />
            </Array>
          </mxGeometry>
        </mxCell>
        <mxCell id="BvIXddIH53Y5yg7DUaGY-53" value="确认合作" style="edgeLabel;html=1;align=center;verticalAlign=middle;resizable=0;points=[];" vertex="1" connectable="0" parent="BvIXddIH53Y5yg7DUaGY-51">
          <mxGeometry x="-0.2402" y="-1" relative="1" as="geometry">
            <mxPoint x="-2" y="-63" as="offset" />
          </mxGeometry>
        </mxCell>
        <mxCell id="BvIXddIH53Y5yg7DUaGY-52" value="代运营关系备案" style="rounded=1;whiteSpace=wrap;html=1;fillColor=#f5f5f5;strokeColor=#666666;fontColor=#333333;" vertex="1" parent="1">
          <mxGeometry x="300.25" y="2546" width="164" height="56" as="geometry" />
        </mxCell>
        <mxCell id="BvIXddIH53Y5yg7DUaGY-55" value="" style="endArrow=blockThin;html=1;endFill=1;rounded=1;strokeColor=#999999;entryX=1;entryY=0.5;entryDx=0;entryDy=0;dashed=1;" edge="1" parent="1" target="BvIXddIH53Y5yg7DUaGY-52">
          <mxGeometry width="50" height="50" relative="1" as="geometry">
            <mxPoint x="673.25" y="2457" as="sourcePoint" />
            <mxPoint x="673.25" y="2586.5" as="targetPoint" />
            <Array as="points">
              <mxPoint x="673.25" y="2574" />
            </Array>
          </mxGeometry>
        </mxCell>
        <mxCell id="BvIXddIH53Y5yg7DUaGY-57" value="&lt;span style=&quot;color: rgb(58 , 60 , 65) ; font-family: , , &amp;#34;segoe ui&amp;#34; , &amp;#34;pingfang sc&amp;#34; , &amp;#34;hiragino sans gb&amp;#34; , &amp;#34;microsoft yahei&amp;#34; , &amp;#34;helvetica neue&amp;#34; , &amp;#34;helvetica&amp;#34; , &amp;#34;arial&amp;#34; , sans-serif ; font-size: 14px&quot;&gt;以承接服务-备案服务作为结果考核咨询单成功转化率&lt;/span&gt;" style="text;html=1;strokeColor=none;fillColor=none;align=center;verticalAlign=middle;whiteSpace=wrap;rounded=0;" vertex="1" parent="1">
          <mxGeometry x="226.5" y="2636" width="348.5" height="20" as="geometry" />
        </mxCell>
        <mxCell id="BvIXddIH53Y5yg7DUaGY-62" style="edgeStyle=orthogonalEdgeStyle;rounded=1;orthogonalLoop=1;jettySize=auto;html=1;entryX=0;entryY=0.5;entryDx=0;entryDy=0;endArrow=blockThin;endFill=1;strokeColor=#999999;" edge="1" parent="1" source="BvIXddIH53Y5yg7DUaGY-59" target="BvIXddIH53Y5yg7DUaGY-60">
          <mxGeometry relative="1" as="geometry" />
        </mxCell>
        <mxCell id="BvIXddIH53Y5yg7DUaGY-59" value="服务商上传案例视频" style="rounded=1;whiteSpace=wrap;html=1;strokeWidth=1;fillColor=#d5e8d4;strokeColor=#82b366;" vertex="1" parent="1">
          <mxGeometry x="55" y="3143" width="129" height="53" as="geometry" />
        </mxCell>
        <mxCell id="BvIXddIH53Y5yg7DUaGY-63" style="edgeStyle=orthogonalEdgeStyle;rounded=1;orthogonalLoop=1;jettySize=auto;html=1;entryX=0;entryY=0.5;entryDx=0;entryDy=0;endArrow=blockThin;endFill=1;strokeColor=#999999;" edge="1" parent="1" source="BvIXddIH53Y5yg7DUaGY-60" target="BvIXddIH53Y5yg7DUaGY-61">
          <mxGeometry relative="1" as="geometry" />
        </mxCell>
        <mxCell id="BvIXddIH53Y5yg7DUaGY-60" value="视频内容机审" style="rounded=1;whiteSpace=wrap;html=1;strokeWidth=1;fillColor=#f5f5f5;strokeColor=#666666;fontColor=#333333;" vertex="1" parent="1">
          <mxGeometry x="249" y="3143" width="129" height="53" as="geometry" />
        </mxCell>
        <mxCell id="BvIXddIH53Y5yg7DUaGY-65" style="edgeStyle=orthogonalEdgeStyle;rounded=1;orthogonalLoop=1;jettySize=auto;html=1;endArrow=blockThin;endFill=1;strokeColor=#999999;" edge="1" parent="1" source="BvIXddIH53Y5yg7DUaGY-61" target="BvIXddIH53Y5yg7DUaGY-64">
          <mxGeometry relative="1" as="geometry" />
        </mxCell>
        <mxCell id="BvIXddIH53Y5yg7DUaGY-67" style="edgeStyle=orthogonalEdgeStyle;rounded=1;orthogonalLoop=1;jettySize=auto;html=1;entryX=0;entryY=0.5;entryDx=0;entryDy=0;endArrow=blockThin;endFill=1;strokeColor=#999999;" edge="1" parent="1" source="BvIXddIH53Y5yg7DUaGY-61" target="BvIXddIH53Y5yg7DUaGY-66">
          <mxGeometry relative="1" as="geometry" />
        </mxCell>
        <mxCell id="BvIXddIH53Y5yg7DUaGY-61" value="UED小二审核" style="rounded=1;whiteSpace=wrap;html=1;strokeWidth=1;fillColor=#f5f5f5;strokeColor=#666666;fontColor=#333333;" vertex="1" parent="1">
          <mxGeometry x="446" y="3143" width="129" height="53" as="geometry" />
        </mxCell>
        <mxCell id="BvIXddIH53Y5yg7DUaGY-64" value="运营服务市场侧&lt;br&gt;进行视频案例推广" style="rounded=1;whiteSpace=wrap;html=1;strokeWidth=1;fillColor=#ffe6cc;strokeColor=#d79b00;" vertex="1" parent="1">
          <mxGeometry x="643" y="3143" width="129" height="53" as="geometry" />
        </mxCell>
        <mxCell id="BvIXddIH53Y5yg7DUaGY-66" value="1688短视频白皮书&lt;br&gt;案例视频展示" style="rounded=1;whiteSpace=wrap;html=1;strokeWidth=1;fillColor=#ffe6cc;strokeColor=#d79b00;" vertex="1" parent="1">
          <mxGeometry x="647" y="3248" width="129" height="53" as="geometry" />
        </mxCell>
        <mxCell id="BvIXddIH53Y5yg7DUaGY-76" value="依赖&lt;br&gt;服务" style="rounded=0;whiteSpace=wrap;html=1;strokeWidth=1;fillColor=#f5f5f5;fontColor=#333333;strokeColor=#C7C7C7;" vertex="1" parent="1">
          <mxGeometry x="20.75" y="513" width="66.5" height="70" as="geometry" />
        </mxCell>
        <mxCell id="BvIXddIH53Y5yg7DUaGY-78" value="" style="rounded=0;whiteSpace=wrap;html=1;strokeWidth=1;strokeColor=#C7C7C7;" vertex="1" parent="1">
          <mxGeometry x="86" y="513" width="721" height="70" as="geometry" />
        </mxCell>
        <mxCell id="BvIXddIH53Y5yg7DUaGY-79" value="水脉入驻系统（厂货通）" style="rounded=0;whiteSpace=wrap;html=1;strokeColor=#999999;strokeWidth=1;" vertex="1" parent="1">
          <mxGeometry x="142" y="531" width="162" height="39" as="geometry" />
        </mxCell>
        <mxCell id="BvIXddIH53Y5yg7DUaGY-80" value="NBF规则引擎 (cbu-crm)" style="rounded=0;whiteSpace=wrap;html=1;strokeColor=#999999;strokeWidth=1;" vertex="1" parent="1">
          <mxGeometry x="360" y="528.5" width="162" height="39" as="geometry" />
        </mxCell>
        <mxCell id="BvIXddIH53Y5yg7DUaGY-81" value="纵横组织系统（idt-home)" style="rounded=0;whiteSpace=wrap;html=1;strokeColor=#999999;strokeWidth=1;" vertex="1" parent="1">
          <mxGeometry x="578" y="528.5" width="162" height="39" as="geometry" />
        </mxCell>
        <mxCell id="BvIXddIH53Y5yg7DUaGY-83" value="基础流程" style="rounded=0;whiteSpace=wrap;html=1;strokeColor=#b85450;strokeWidth=1;fillColor=#f8cecc;" vertex="1" parent="1">
          <mxGeometry x="25.5" y="222" width="66.5" height="70" as="geometry" />
        </mxCell>
        <mxCell id="BvIXddIH53Y5yg7DUaGY-84" value="" style="rounded=0;whiteSpace=wrap;html=1;strokeColor=#999999;strokeWidth=1;" vertex="1" parent="1">
          <mxGeometry x="89" y="222" width="631" height="70" as="geometry" />
        </mxCell>
        <mxCell id="BvIXddIH53Y5yg7DUaGY-85" value="" style="rounded=0;whiteSpace=wrap;html=1;strokeWidth=1;opacity=10;" vertex="1" parent="1">
          <mxGeometry x="741.75" y="268" width="65.25" height="232" as="geometry" />
        </mxCell>
        <mxCell id="BvIXddIH53Y5yg7DUaGY-86" value="安全控制" style="rounded=0;whiteSpace=wrap;html=1;strokeColor=#82b366;strokeWidth=1;fillColor=#d5e8d4;" vertex="1" parent="1">
          <mxGeometry x="741.75" y="224" width="65.25" height="44" as="geometry" />
        </mxCell>
        <mxCell id="BvIXddIH53Y5yg7DUaGY-88" value="墨子&lt;br&gt;租户" style="rounded=0;whiteSpace=wrap;html=1;strokeColor=#999999;strokeWidth=1;" vertex="1" parent="1">
          <mxGeometry x="750.25" y="292" width="47" height="44" as="geometry" />
        </mxCell>
        <mxCell id="BvIXddIH53Y5yg7DUaGY-89" value="菜单&lt;br&gt;权限" style="rounded=0;whiteSpace=wrap;html=1;strokeColor=#999999;strokeWidth=1;" vertex="1" parent="1">
          <mxGeometry x="750.88" y="359" width="47" height="44" as="geometry" />
        </mxCell>
        <mxCell id="BvIXddIH53Y5yg7DUaGY-90" value="代运营备案" style="text;html=1;strokeColor=none;fillColor=none;align=center;verticalAlign=middle;whiteSpace=wrap;rounded=0;" vertex="1" parent="1">
          <mxGeometry x="155.25" y="250" width="40" height="20" as="geometry" />
        </mxCell>
        <mxCell id="BvIXddIH53Y5yg7DUaGY-92" value="发起备案" style="rounded=0;whiteSpace=wrap;html=1;strokeWidth=1;strokeColor=#FF6666;" vertex="1" parent="1">
          <mxGeometry x="204.25" y="233" width="59" height="24" as="geometry" />
        </mxCell>
        <mxCell id="BvIXddIH53Y5yg7DUaGY-93" value="商家确认" style="rounded=0;whiteSpace=wrap;html=1;strokeWidth=1;strokeColor=#FF6666;" vertex="1" parent="1">
          <mxGeometry x="277.25" y="233" width="59" height="24" as="geometry" />
        </mxCell>
        <mxCell id="BvIXddIH53Y5yg7DUaGY-94" value="小二审核" style="rounded=0;whiteSpace=wrap;html=1;strokeWidth=1;strokeColor=#FF6666;" vertex="1" parent="1">
          <mxGeometry x="204.25" y="262" width="59" height="24" as="geometry" />
        </mxCell>
        <mxCell id="BvIXddIH53Y5yg7DUaGY-95" value="备案成功" style="rounded=0;whiteSpace=wrap;html=1;strokeWidth=1;strokeColor=#FF6666;" vertex="1" parent="1">
          <mxGeometry x="277.25" y="262" width="59" height="24" as="geometry" />
        </mxCell>
        <mxCell id="BvIXddIH53Y5yg7DUaGY-96" value="" style="rounded=0;whiteSpace=wrap;html=1;strokeWidth=1;fillColor=none;dashed=1;strokeColor=#FF0000;" vertex="1" parent="1">
          <mxGeometry x="142.75" y="229" width="227" height="60" as="geometry" />
        </mxCell>
        <mxCell id="BvIXddIH53Y5yg7DUaGY-97" value="服务商履约" style="text;html=1;strokeColor=none;fillColor=none;align=center;verticalAlign=middle;whiteSpace=wrap;rounded=0;" vertex="1" parent="1">
          <mxGeometry x="440.75" y="249" width="40" height="20" as="geometry" />
        </mxCell>
        <mxCell id="BvIXddIH53Y5yg7DUaGY-98" value="履约周期" style="rounded=0;whiteSpace=wrap;html=1;strokeWidth=1;strokeColor=#FF6666;" vertex="1" parent="1">
          <mxGeometry x="489.75" y="232" width="59" height="24" as="geometry" />
        </mxCell>
        <mxCell id="BvIXddIH53Y5yg7DUaGY-99" value="数据抓取" style="rounded=0;whiteSpace=wrap;html=1;strokeWidth=1;strokeColor=#FF3333;" vertex="1" parent="1">
          <mxGeometry x="562.75" y="232" width="59" height="24" as="geometry" />
        </mxCell>
        <mxCell id="BvIXddIH53Y5yg7DUaGY-100" value="发起验收" style="rounded=0;whiteSpace=wrap;html=1;strokeWidth=1;strokeColor=#FF3333;" vertex="1" parent="1">
          <mxGeometry x="489.75" y="261" width="59" height="24" as="geometry" />
        </mxCell>
        <mxCell id="BvIXddIH53Y5yg7DUaGY-101" value="短信提醒" style="rounded=0;whiteSpace=wrap;html=1;strokeWidth=1;strokeColor=#FF3333;" vertex="1" parent="1">
          <mxGeometry x="562.75" y="261" width="59" height="24" as="geometry" />
        </mxCell>
        <mxCell id="BvIXddIH53Y5yg7DUaGY-102" value="" style="rounded=0;whiteSpace=wrap;html=1;strokeWidth=1;fillColor=none;dashed=1;strokeColor=#FF0000;" vertex="1" parent="1">
          <mxGeometry x="430" y="229" width="232" height="60" as="geometry" />
        </mxCell>
        <mxCell id="BvIXddIH53Y5yg7DUaGY-105" value="产品&lt;br&gt;&lt;br&gt;能力" style="rounded=0;whiteSpace=wrap;html=1;strokeWidth=1;fillColor=#cce5ff;strokeColor=#BABABA;" vertex="1" parent="1">
          <mxGeometry x="24" y="311" width="63" height="189" as="geometry" />
        </mxCell>
        <mxCell id="BvIXddIH53Y5yg7DUaGY-106" value="星级服务商成长中心" style="rounded=0;whiteSpace=wrap;html=1;strokeColor=#6c8ebf;strokeWidth=1;fillColor=#dae8fc;" vertex="1" parent="1">
          <mxGeometry x="106.75" y="311" width="181" height="43" as="geometry" />
        </mxCell>
        <mxCell id="BvIXddIH53Y5yg7DUaGY-113" value="代运营咨询单" style="rounded=0;whiteSpace=wrap;html=1;strokeColor=#6c8ebf;strokeWidth=1;fillColor=#dae8fc;" vertex="1" parent="1">
          <mxGeometry x="322" y="311" width="181" height="43" as="geometry" />
        </mxCell>
        <mxCell id="BvIXddIH53Y5yg7DUaGY-115" value="直播短视频案例视频" style="rounded=0;whiteSpace=wrap;html=1;strokeColor=#6c8ebf;strokeWidth=1;fillColor=#dae8fc;" vertex="1" parent="1">
          <mxGeometry x="537.5" y="311" width="181" height="43" as="geometry" />
        </mxCell>
        <mxCell id="BvIXddIH53Y5yg7DUaGY-116" value="" style="rounded=0;whiteSpace=wrap;html=1;strokeWidth=1;gradientColor=#ffffff;strokeColor=#BABABA;" vertex="1" parent="1">
          <mxGeometry x="106.75" y="354" width="181.25" height="144" as="geometry" />
        </mxCell>
        <mxCell id="BvIXddIH53Y5yg7DUaGY-117" value="经营概览" style="rounded=0;whiteSpace=wrap;html=1;shadow=0;glass=0;sketch=0;strokeWidth=1;strokeColor=#66B2FF;" vertex="1" parent="1">
          <mxGeometry x="122.86999999999999" y="376" width="149" height="27" as="geometry" />
        </mxCell>
        <mxCell id="BvIXddIH53Y5yg7DUaGY-119" value="每日评分" style="rounded=0;whiteSpace=wrap;html=1;shadow=0;glass=0;sketch=0;strokeWidth=1;strokeColor=#66B2FF;" vertex="1" parent="1">
          <mxGeometry x="124" y="412.5" width="149" height="27" as="geometry" />
        </mxCell>
        <mxCell id="BvIXddIH53Y5yg7DUaGY-120" value="经营攻略" style="rounded=0;whiteSpace=wrap;html=1;shadow=0;glass=0;sketch=0;strokeWidth=1;strokeColor=#66B2FF;" vertex="1" parent="1">
          <mxGeometry x="124" y="451.5" width="149" height="27" as="geometry" />
        </mxCell>
        <mxCell id="BvIXddIH53Y5yg7DUaGY-121" value="" style="rounded=0;whiteSpace=wrap;html=1;strokeWidth=1;gradientColor=#ffffff;strokeColor=#BABABA;" vertex="1" parent="1">
          <mxGeometry x="321.75" y="354" width="181.25" height="144" as="geometry" />
        </mxCell>
        <mxCell id="BvIXddIH53Y5yg7DUaGY-122" value="合作意向" style="rounded=0;whiteSpace=wrap;html=1;shadow=0;glass=0;sketch=0;strokeWidth=1;strokeColor=#66B2FF;" vertex="1" parent="1">
          <mxGeometry x="337.87" y="376" width="149" height="27" as="geometry" />
        </mxCell>
        <mxCell id="BvIXddIH53Y5yg7DUaGY-123" value="自动分发" style="rounded=0;whiteSpace=wrap;html=1;shadow=0;glass=0;sketch=0;strokeWidth=1;strokeColor=#66B2FF;" vertex="1" parent="1">
          <mxGeometry x="339" y="412.5" width="149" height="27" as="geometry" />
        </mxCell>
        <mxCell id="BvIXddIH53Y5yg7DUaGY-124" value="钉钉触达" style="rounded=0;whiteSpace=wrap;html=1;shadow=0;glass=0;sketch=0;strokeWidth=1;strokeColor=#66B2FF;" vertex="1" parent="1">
          <mxGeometry x="339" y="451.5" width="149" height="27" as="geometry" />
        </mxCell>
        <mxCell id="BvIXddIH53Y5yg7DUaGY-126" value="" style="rounded=0;whiteSpace=wrap;html=1;strokeWidth=1;gradientColor=#ffffff;strokeColor=#BABABA;" vertex="1" parent="1">
          <mxGeometry x="537.25" y="354" width="181.25" height="144" as="geometry" />
        </mxCell>
        <mxCell id="BvIXddIH53Y5yg7DUaGY-127" value="上传视频" style="rounded=0;whiteSpace=wrap;html=1;shadow=0;glass=0;sketch=0;strokeWidth=1;strokeColor=#66B2FF;" vertex="1" parent="1">
          <mxGeometry x="553.37" y="376" width="149" height="27" as="geometry" />
        </mxCell>
        <mxCell id="BvIXddIH53Y5yg7DUaGY-128" value="视频审核" style="rounded=0;whiteSpace=wrap;html=1;shadow=0;glass=0;sketch=0;strokeWidth=1;strokeColor=#66B2FF;" vertex="1" parent="1">
          <mxGeometry x="554.5" y="412.5" width="149" height="27" as="geometry" />
        </mxCell>
        <mxCell id="BvIXddIH53Y5yg7DUaGY-129" value="内容展示" style="rounded=0;whiteSpace=wrap;html=1;shadow=0;glass=0;sketch=0;strokeWidth=1;strokeColor=#66B2FF;" vertex="1" parent="1">
          <mxGeometry x="554.5" y="451.5" width="149" height="27" as="geometry" />
        </mxCell>
        <mxCell id="BvIXddIH53Y5yg7DUaGY-136" value="ACL&lt;br&gt;权限" style="rounded=0;whiteSpace=wrap;html=1;strokeColor=#999999;strokeWidth=1;" vertex="1" parent="1">
          <mxGeometry x="750.88" y="431" width="47" height="44" as="geometry" />
        </mxCell>
        <mxCell id="BvIXddIH53Y5yg7DUaGY-141" value="" style="endArrow=blockThin;html=1;fontColor=#000000;endFill=1;rounded=1;dashed=1;strokeColor=#FF3333;" edge="1" parent="1">
          <mxGeometry width="50" height="50" relative="1" as="geometry">
            <mxPoint x="382.25" y="260" as="sourcePoint" />
            <mxPoint x="422.25" y="260" as="targetPoint" />
          </mxGeometry>
        </mxCell>
      </root>
    </mxGraphModel>
  </diagram>
</mxfile>
